# xmcd
#
# Track frame offsets:
#        150
#        19610
#        35112
#        54930
#        69455
#        91585
#        107500
#        126380
#        133320
#        153120
#        156587
#        173020
#        205545
#
# Disc length: 3033 seconds
#
# Revision: 0
# Processed by: cddbd v1.5.1PL0 Copyright (c) Steve Scherf et al.
# Submitted via: ExactAudioCopy v0.95a5
#
DISCID=a50bd70d
DTITLE=Cinnamon - Vertigo
DYEAR=1999
DGENRE=Pop
TTITLE0=I Used To Be Loneliness
TTITLE1=Nothing
TTITLE2=Did You Think I Would Ever Let You Go?
TTITLE3=Take Your Time
TTITLE4=Stars Collide
TTITLE5=World Of Crime
TTITLE6=A Few Grains Of Sand For Working Your Whole Life
TTITLE7=Averon
TTITLE8=Maybe In The Next Life
TTITLE9=March Of Cinnamons
TTITLE10=More Than You Bargained
TTITLE11=Angel Eyes
TTITLE12=Spring Time Of My Life
EXTD=
EXTT0=
EXTT1=
EXTT2=
EXTT3=
EXTT4=
EXTT5=
EXTT6=
EXTT7=
EXTT8=
EXTT9=
EXTT10=
EXTT11=
EXTT12=
PLAYORDER=
